<svg xmlns="http://www.w3.org/2000/svg" xml:space="preserve" fill-rule="evenodd" stroke-linejoin="round" stroke-miterlimit="2" clip-rule="evenodd" viewBox="0 0 166 29">
  <path fill="#091c35" fill-rule="nonzero" d="M148.861 18.013c0-6.325 2.46-10.408 8.57-10.408 6.109 0 8.569 3.763 8.569 10.008v2.241h-13.092c.317 2.802 1.428 5.044 6.03 5.044s3.175 0 5.714-.721v3.522c-3.096.801-4.206.801-5.714.801-8.966 0-10.077-6.485-10.077-10.407v-.08Zm-18.488 7.845v-4.002c3.651 2.241 5.476 3.042 8.412 3.042 2.935 0 3.49-1.121 3.49-2.402 0-1.282-1.031-2.162-4.681-2.962-5.713-1.281-7.221-3.122-7.221-6.325 0-3.202 2.857-5.604 7.062-5.604 4.206 0 5.316.721 7.221 2.082v3.602c-2.936-1.441-5.475-2.081-7.617-2.081-2.143 0-2.698.881-2.698 1.841 0 .961.476 1.922 3.888 2.802 5.872 1.601 8.014 2.882 8.014 6.564 0 3.684-2.856 6.005-7.458 6.005-4.603 0-5.556-.64-8.412-2.562Zm-84.349-7.845c0-6.325 3.094-10.408 8.887-10.408 5.793 0 8.253 3.283 8.253 8.006h-3.968c-.159-2.481-.952-4.403-4.127-4.403-3.173 0-5.157 1.601-5.157 6.805 0 5.203 1.428 6.804 5.157 6.804 3.73 0 3.968-1.921 4.127-4.402h3.968c0 4.803-3.095 8.005-8.253 8.005-5.158 0-8.887-4.163-8.887-10.407Zm59.829 0c0 5.924-2.301 10.407-8.729 10.407-6.427 0-4.761-1.041-5.951-2.802v2.402h-3.967V0h3.967v10.407c1.19-1.76 3.174-2.802 5.951-2.802 6.428 0 8.729 4.564 8.729 10.408Zm-80.619 3.322c.018-3.43 2.32-7.005 7.142-7.005 4.84 0 4.364.8 5.554 2.401v-5.203H27.615V7.926h14.283v16.011h2.38v4.002H37.93v-2c-1.19 1.6-2.777 2.4-5.554 2.4-4.822 0-7.124-3.495-7.142-7.004Zm83.238 0c.017-3.43 2.319-7.005 7.141-7.005 4.84 0 4.364.8 5.554 2.401v-5.203h-10.315V7.926h14.283v16.011h2.381v4.002h-6.349v-2c-1.19 1.6-2.777 2.4-5.554 2.4-4.822 0-7.124-3.495-7.141-7.004ZM70.86 16.251h3.095l5.554-8.246h4.84l-6.823 10.088 6.823 10.006h-4.84l-5.554-8.165H70.86v8.086h-3.968V0h3.968v16.251ZM16.505 13.85v-.72c3.968-.561 4.999-2.963 4.999-5.605 0-2.642-2.301-6.804-7.935-6.804h-3.174v3.602h3.174c3.015 0 3.967.961 3.967 3.523 0 2.561-.952 3.922-3.967 3.922H3.651V28.02h9.918c6.506 0 8.728-3.763 8.728-7.605 0-3.843-1.189-6.005-5.792-6.565Zm21.345 7.525c0-2.002-1.428-3.362-4.364-3.362s-4.363 1.441-4.363 3.362c0 1.922 1.427 3.442 4.363 3.442 2.936 0 4.364-1.441 4.364-3.442Zm83.238 0c0-2.002-1.428-3.362-4.365-3.362-2.935 0-4.364 1.441-4.364 3.362 0 1.922 1.429 3.442 4.364 3.442 2.937 0 4.365-1.441 4.365-3.442Zm-19.203-3.362c0-4.804-1.428-6.805-5.316-6.805s-5.316 2.001-5.316 6.805c0 4.803 1.428 6.804 5.316 6.804s5.316-2.001 5.316-6.804Zm-88.236 6.404H7.697v-9.046h5.952c3.57 0 4.761.96 4.761 4.723 0 3.762-1.191 4.323-4.761 4.323Zm11.585-3.082v.04-.08.04Zm83.238 0-.001.04v-.08l.001.04Zm53.561-5.084c-.079-3.522-1.428-4.963-4.602-4.963-3.175 0-4.444 1.761-4.602 4.963h9.204ZM0 .801v3.763h3.729v4.002h3.889V.801H0Z"/>
</svg>
